Disc Title:     UglyDolls
Disc Label:     Uglydolls.2019.COMPLETE.BLURAY-DiSRUPTION
Disc Size:      49,674,513,986 bytes
Protection:     AACS
Extras:         BD-Java
BDInfo:         0.7.5.5

Notes:          

BDINFO HOME:
  Cinema Squid (old)
    http://www.cinemasquid.com/blu-ray/tools/bdinfo
  UniqProject GitHub (new)
   https://github.com/UniqProject/BDInfo

INCLUDES FORUMS REPORT FOR:
  AVS Forum Blu-ray Audio and Video Specifications Thread
    http://www.avsforum.com/avs-vb/showthread.php?t=1155731


********************
PLAYLIST: 00612.MPLS
********************

<--- BEGIN FORUMS PASTE --->
[code]
                                                                                                                Total   Video                                             
Title                                                           Codec   Length  Movie Size      Disc Size       Bitrate Bitrate Main Audio Track                          Secondary Audio Track
-----                                                           ------  ------- --------------  --------------  ------- ------- ------------------                        ---------------------
00612.MPLS                                                      AVC     1:27:50 22,258,384,896  49,674,513,986  33.79   27.80   DTS-HD Master 7.1 3947Kbps (48kHz/24-bit) 
[/code]

[code]

DISC INFO:

Disc Title:     UglyDolls
Disc Label:     Uglydolls.2019.COMPLETE.BLURAY-DiSRUPTION
Disc Size:      49,674,513,986 bytes
Protection:     AACS
Extras:         BD-Java
BDInfo:         0.7.5.5

PLAYLIST REPORT:

Name:                   00612.MPLS
Length:                 1:27:50.473 (h:m:s.ms)
Size:                   22,258,384,896 bytes
Total Bitrate:          33.79 Mbps

VIDEO:

Codec                   Bitrate             Description     
-----                   -------             -----------     
MPEG-4 AVC Video        27800 kbps          1080p / 23.976 fps / 16:9 / High Profile 4.1

AUDIO:

Codec                           Language        Bitrate         Description     
-----                           --------        -------         -----------     
DTS-HD Master Audio             English         3947 kbps       7.1 / 48 kHz /  3947 kbps / 24-bit (DTS Core: 5.1 / 48 kHz /  1509 kbps / 24-bit)
Dolby Digital Audio             English         192 kbps        2.0 / 48 kHz /   192 kbps / DN -24dB / Dolby Surround

SUBTITLES:

Codec                           Language        Bitrate         Description     
-----                           --------        -------         -----------     
Presentation Graphics           English         56.023 kbps                     
Presentation Graphics           Spanish         40.871 kbps                     

FILES:

Name            Time In         Length          Size            Total Bitrate   
----            -------         ------          ----            -------------   
00246.M2TS      0:00:00.000     1:27:50.473     22,258,384,896  33,786          

CHAPTERS:

Number          Time In         Length          Avg Video Rate  Max 1-Sec Rate  Max 1-Sec Time  Max 5-Sec Rate  Max 5-Sec Time  Max 10Sec Rate  Max 10Sec Time  Avg Frame Size  Max Frame Size  Max Frame Time  
------          -------         ------          --------------  --------------  --------------  --------------  --------------  --------------  --------------  --------------  --------------  --------------  
1               0:00:00.000     0:05:31.331     30,205 kbps     41,700 kbps     00:04:47.412    38,491 kbps     00:05:25.867    38,303 kbps     00:00:14.222    157,455 bytes   639,789 bytes   00:03:11.274    
2               0:05:31.331     0:03:40.929     29,950 kbps     40,922 kbps     00:06:09.702    38,596 kbps     00:06:13.915    37,798 kbps     00:06:08.910    156,148 bytes   626,436 bytes   00:06:27.011    
3               0:09:12.260     0:05:01.884     28,477 kbps     45,696 kbps     00:12:54.982    37,777 kbps     00:11:24.183    36,470 kbps     00:11:23.683    148,467 bytes   640,221 bytes   00:11:58.718    
4               0:14:14.144     0:04:44.158     28,937 kbps     44,077 kbps     00:15:58.540    38,715 kbps     00:18:48.877    38,370 kbps     00:18:23.060    150,864 bytes   637,904 bytes   00:18:45.374    
5               0:18:58.303     0:02:18.930     28,919 kbps     40,251 kbps     00:19:17.906    36,407 kbps     00:19:01.223    34,890 kbps     00:19:01.265    150,770 bytes   557,553 bytes   00:19:03.016    
6               0:21:17.234     0:04:10.917     27,413 kbps     41,590 kbps     00:21:37.129    36,184 kbps     00:21:27.869    33,448 kbps     00:21:35.669    142,918 bytes   518,131 bytes   00:24:42.856    
7               0:25:28.151     0:03:56.527     30,873 kbps     41,421 kbps     00:27:21.514    38,763 kbps     00:25:29.778    37,121 kbps     00:26:22.664    160,960 bytes   639,616 bytes   00:25:36.493    
8               0:29:24.679     0:02:36.447     27,202 kbps     40,006 kbps     00:30:50.181    36,327 kbps     00:30:43.800    34,804 kbps     00:30:42.090    141,820 bytes   541,593 bytes   00:30:51.099    
9               0:32:01.127     0:02:51.337     26,677 kbps     40,342 kbps     00:33:21.457    35,505 kbps     00:33:05.566    33,292 kbps     00:33:17.870    139,083 bytes   536,942 bytes   00:34:44.707    
10              0:34:52.465     0:05:29.454     29,669 kbps     45,054 kbps     00:37:26.577    38,493 kbps     00:35:28.084    37,186 kbps     00:35:23.663    154,683 bytes   635,666 bytes   00:35:06.229    
11              0:40:21.919     0:04:23.179     30,067 kbps     45,621 kbps     00:41:46.754    38,896 kbps     00:41:44.627    38,328 kbps     00:42:27.628    156,754 bytes   627,040 bytes   00:43:13.674    
12              0:44:45.099     0:06:30.640     28,773 kbps     41,138 kbps     00:47:31.139    37,752 kbps     00:47:03.821    35,452 kbps     00:47:03.070    150,008 bytes   581,515 bytes   00:51:15.739    
13              0:51:15.739     0:04:31.229     27,427 kbps     41,529 kbps     00:55:00.672    35,171 kbps     00:53:19.279    33,538 kbps     00:53:21.615    142,989 bytes   611,577 bytes   00:51:44.017    
14              0:55:46.968     0:03:46.935     28,294 kbps     40,891 kbps     00:58:09.194    37,613 kbps     00:58:05.815    37,012 kbps     00:58:06.065    147,513 bytes   609,877 bytes   00:59:01.871    
15              0:59:33.903     0:02:30.650     30,579 kbps     42,009 kbps     01:00:50.229    36,550 kbps     01:00:10.523    35,553 kbps     01:00:41.971    159,424 bytes   501,672 bytes   01:01:37.276    
16              1:02:04.554     0:05:00.508     29,000 kbps     40,209 kbps     01:05:05.109    36,633 kbps     01:03:04.030    34,887 kbps     01:03:02.779    151,192 bytes   509,833 bytes   01:04:01.712    
17              1:07:05.062     0:05:31.789     29,324 kbps     41,075 kbps     01:11:16.939    38,491 kbps     01:08:55.464    36,277 kbps     01:08:51.377    152,882 bytes   559,909 bytes   01:12:11.243    
18              1:12:36.852     0:03:54.275     30,752 kbps     41,560 kbps     01:14:53.113    38,665 kbps     01:16:16.405    37,922 kbps     01:15:41.203    160,329 bytes   638,294 bytes   01:16:21.410    
19              1:16:31.128     0:03:13.735     25,258 kbps     41,785 kbps     01:17:42.324    34,889 kbps     01:17:17.257    33,762 kbps     01:17:17.174    131,684 bytes   607,510 bytes   01:17:17.299    
20              1:19:44.863     0:08:05.610     16,712 kbps     31,367 kbps     01:22:23.521    27,539 kbps     01:20:11.014    25,766 kbps     01:20:05.967    87,138 bytes    601,949 bytes   01:22:24.522    

STREAM DIAGNOSTICS:

File            PID             Type            Codec           Language                Seconds                 Bitrate                 Bytes           Packets         
----            ---             ----            -----           --------                --------------          --------------          -------------   -----           
00246.M2TS      4113 (0x1011)   0x1B            AVC                                     5270.307                27,801                  18,315,137,676  99,612,069      
00246.M2TS      4352 (0x1100)   0x86            DTS-HD MA       eng (English)           5270.307                3,947                   2,600,060,052   14,951,657      
00246.M2TS      4353 (0x1101)   0x81            AC3             eng (English)           5270.307                192                     126,491,904     823,515         
00246.M2TS      4608 (0x1200)   0x90            PGS             eng (English)           5270.307                56                      36,908,681      211,198         
00246.M2TS      4609 (0x1201)   0x90            PGS             spa (Spanish)           5270.307                41                      26,926,042      154,040         

[/code]
<---- END FORUMS PASTE ---->

QUICK SUMMARY:

Disc Title: UglyDolls
Disc Label: Uglydolls.2019.COMPLETE.BLURAY-DiSRUPTION
Disc Size: 49,674,513,986 bytes
Protection: AACS
Playlist: 00612.MPLS
Size: 22,258,384,896 bytes
Length: 1:27:50.473
Total Bitrate: 33.79 Mbps
Video: MPEG-4 AVC Video / 27800 kbps / 1080p / 23.976 fps / 16:9 / High Profile 4.1
Audio: English / DTS-HD Master Audio / 7.1 / 48 kHz /  3947 kbps / 24-bit (DTS Core: 5.1 / 48 kHz /  1509 kbps / 24-bit)
Audio: English / Dolby Digital Audio / 2.0 / 48 kHz /   192 kbps / DN -24dB / Dolby Surround
Subtitle: English / 56.023 kbps
Subtitle: Spanish / 40.871 kbps


********************
PLAYLIST: 00800.MPLS
********************

<--- BEGIN FORUMS PASTE --->
[code]
                                                                                                                Total   Video                                             
Title                                                           Codec   Length  Movie Size      Disc Size       Bitrate Bitrate Main Audio Track                          Secondary Audio Track
-----                                                           ------  ------- --------------  --------------  ------- ------- ------------------                        ---------------------
00800.MPLS                                                      AVC     1:27:50 22,258,384,896  49,674,513,986  33.79   27.80   DTS-HD Master 7.1 3947Kbps (48kHz/24-bit) 
[/code]

[code]

DISC INFO:

Disc Title:     UglyDolls
Disc Label:     Uglydolls.2019.COMPLETE.BLURAY-DiSRUPTION
Disc Size:      49,674,513,986 bytes
Protection:     AACS
Extras:         BD-Java
BDInfo:         0.7.5.5

PLAYLIST REPORT:

Name:                   00800.MPLS
Length:                 1:27:50.473 (h:m:s.ms)
Size:                   22,258,384,896 bytes
Total Bitrate:          33.79 Mbps

VIDEO:

Codec                   Bitrate             Description     
-----                   -------             -----------     
MPEG-4 AVC Video        27800 kbps          1080p / 23.976 fps / 16:9 / High Profile 4.1

AUDIO:

Codec                           Language        Bitrate         Description     
-----                           --------        -------         -----------     
DTS-HD Master Audio             English         3947 kbps       7.1 / 48 kHz /  3947 kbps / 24-bit (DTS Core: 5.1 / 48 kHz /  1509 kbps / 24-bit)
Dolby Digital Audio             English         192 kbps        2.0 / 48 kHz /   192 kbps / DN -24dB / Dolby Surround

SUBTITLES:

Codec                           Language        Bitrate         Description     
-----                           --------        -------         -----------     
Presentation Graphics           English         56.023 kbps                     
Presentation Graphics           Spanish         40.871 kbps                     

FILES:

Name            Time In         Length          Size            Total Bitrate   
----            -------         ------          ----            -------------   
00246.M2TS      0:00:00.000     1:27:50.473     22,258,384,896  33,786          

CHAPTERS:

Number          Time In         Length          Avg Video Rate  Max 1-Sec Rate  Max 1-Sec Time  Max 5-Sec Rate  Max 5-Sec Time  Max 10Sec Rate  Max 10Sec Time  Avg Frame Size  Max Frame Size  Max Frame Time  
------          -------         ------          --------------  --------------  --------------  --------------  --------------  --------------  --------------  --------------  --------------  --------------  
1               0:00:00.000     0:05:31.331     30,205 kbps     41,700 kbps     00:04:47.412    38,491 kbps     00:05:25.867    38,303 kbps     00:00:14.222    157,455 bytes   639,789 bytes   00:03:11.274    
2               0:05:31.331     0:03:40.929     29,950 kbps     40,922 kbps     00:06:09.702    38,596 kbps     00:06:13.915    37,798 kbps     00:06:08.910    156,148 bytes   626,436 bytes   00:06:27.011    
3               0:09:12.260     0:05:01.884     28,477 kbps     45,696 kbps     00:12:54.982    37,777 kbps     00:11:24.183    36,470 kbps     00:11:23.683    148,467 bytes   640,221 bytes   00:11:58.718    
4               0:14:14.144     0:04:44.158     28,937 kbps     44,077 kbps     00:15:58.540    38,715 kbps     00:18:48.877    38,370 kbps     00:18:23.060    150,864 bytes   637,904 bytes   00:18:45.374    
5               0:18:58.303     0:02:18.930     28,919 kbps     40,251 kbps     00:19:17.906    36,407 kbps     00:19:01.223    34,890 kbps     00:19:01.265    150,770 bytes   557,553 bytes   00:19:03.016    
6               0:21:17.234     0:04:10.917     27,413 kbps     41,590 kbps     00:21:37.129    36,184 kbps     00:21:27.869    33,448 kbps     00:21:35.669    142,918 bytes   518,131 bytes   00:24:42.856    
7               0:25:28.151     0:03:56.527     30,873 kbps     41,421 kbps     00:27:21.514    38,763 kbps     00:25:29.778    37,121 kbps     00:26:22.664    160,960 bytes   639,616 bytes   00:25:36.493    
8               0:29:24.679     0:02:36.447     27,202 kbps     40,006 kbps     00:30:50.181    36,327 kbps     00:30:43.800    34,804 kbps     00:30:42.090    141,820 bytes   541,593 bytes   00:30:51.099    
9               0:32:01.127     0:02:51.337     26,677 kbps     40,342 kbps     00:33:21.457    35,505 kbps     00:33:05.566    33,292 kbps     00:33:17.870    139,083 bytes   536,942 bytes   00:34:44.707    
10              0:34:52.465     0:05:29.454     29,669 kbps     45,054 kbps     00:37:26.577    38,493 kbps     00:35:28.084    37,186 kbps     00:35:23.663    154,683 bytes   635,666 bytes   00:35:06.229    
11              0:40:21.919     0:04:23.179     30,067 kbps     45,621 kbps     00:41:46.754    38,896 kbps     00:41:44.627    38,328 kbps     00:42:27.628    156,754 bytes   627,040 bytes   00:43:13.674    
12              0:44:45.099     0:06:30.640     28,773 kbps     41,138 kbps     00:47:31.139    37,752 kbps     00:47:03.821    35,452 kbps     00:47:03.070    150,008 bytes   581,515 bytes   00:51:15.739    
13              0:51:15.739     0:04:31.229     27,427 kbps     41,529 kbps     00:55:00.672    35,171 kbps     00:53:19.279    33,538 kbps     00:53:21.615    142,989 bytes   611,577 bytes   00:51:44.017    
14              0:55:46.968     0:03:46.935     28,294 kbps     40,891 kbps     00:58:09.194    37,613 kbps     00:58:05.815    37,012 kbps     00:58:06.065    147,513 bytes   609,877 bytes   00:59:01.871    
15              0:59:33.903     0:02:30.650     30,579 kbps     42,009 kbps     01:00:50.229    36,550 kbps     01:00:10.523    35,553 kbps     01:00:41.971    159,424 bytes   501,672 bytes   01:01:37.276    
16              1:02:04.554     0:05:00.508     29,000 kbps     40,209 kbps     01:05:05.109    36,633 kbps     01:03:04.030    34,887 kbps     01:03:02.779    151,192 bytes   509,833 bytes   01:04:01.712    
17              1:07:05.062     0:05:31.789     29,324 kbps     41,075 kbps     01:11:16.939    38,491 kbps     01:08:55.464    36,277 kbps     01:08:51.377    152,882 bytes   559,909 bytes   01:12:11.243    
18              1:12:36.852     0:03:54.275     30,752 kbps     41,560 kbps     01:14:53.113    38,665 kbps     01:16:16.405    37,922 kbps     01:15:41.203    160,329 bytes   638,294 bytes   01:16:21.410    
19              1:16:31.128     0:03:13.735     25,258 kbps     41,785 kbps     01:17:42.324    34,889 kbps     01:17:17.257    33,762 kbps     01:17:17.174    131,684 bytes   607,510 bytes   01:17:17.299    
20              1:19:44.863     0:08:05.610     16,712 kbps     31,367 kbps     01:22:23.521    27,539 kbps     01:20:11.014    25,766 kbps     01:20:05.967    87,138 bytes    601,949 bytes   01:22:24.522    

STREAM DIAGNOSTICS:

File            PID             Type            Codec           Language                Seconds                 Bitrate                 Bytes           Packets         
----            ---             ----            -----           --------                --------------          --------------          -------------   -----           
00246.M2TS      4113 (0x1011)   0x1B            AVC                                     5270.307                27,801                  18,315,137,676  99,612,069      
00246.M2TS      4352 (0x1100)   0x86            DTS-HD MA       eng (English)           5270.307                3,947                   2,600,060,052   14,951,657      
00246.M2TS      4353 (0x1101)   0x81            AC3             eng (English)           5270.307                192                     126,491,904     823,515         
00246.M2TS      4608 (0x1200)   0x90            PGS             eng (English)           5270.307                56                      36,908,681      211,198         
00246.M2TS      4609 (0x1201)   0x90            PGS             spa (Spanish)           5270.307                41                      26,926,042      154,040         

[/code]
<---- END FORUMS PASTE ---->

QUICK SUMMARY:

Disc Title: UglyDolls
Disc Label: Uglydolls.2019.COMPLETE.BLURAY-DiSRUPTION
Disc Size: 49,674,513,986 bytes
Protection: AACS
Playlist: 00800.MPLS
Size: 22,258,384,896 bytes
Length: 1:27:50.473
Total Bitrate: 33.79 Mbps
Video: MPEG-4 AVC Video / 27800 kbps / 1080p / 23.976 fps / 16:9 / High Profile 4.1
Audio: English / DTS-HD Master Audio / 7.1 / 48 kHz /  3947 kbps / 24-bit (DTS Core: 5.1 / 48 kHz /  1509 kbps / 24-bit)
Audio: English / Dolby Digital Audio / 2.0 / 48 kHz /   192 kbps / DN -24dB / Dolby Surround
Subtitle: English / 56.023 kbps
Subtitle: Spanish / 40.871 kbps


********************
PLAYLIST: 01255.MPLS
********************

<--- BEGIN FORUMS PASTE --->
[code]
                                                                                                                Total   Video                                             
Title                                                           Codec   Length  Movie Size      Disc Size       Bitrate Bitrate Main Audio Track                          Secondary Audio Track
-----                                                           ------  ------- --------------  --------------  ------- ------- ------------------                        ---------------------
01255.MPLS                                                      AVC     1:27:50 22,899,468,288  49,674,513,986  34.76   29.06   DTS-HD Master 7.1 3947Kbps (48kHz/24-bit) 
[/code]

[code]

DISC INFO:

Disc Title:     UglyDolls
Disc Label:     Uglydolls.2019.COMPLETE.BLURAY-DiSRUPTION
Disc Size:      49,674,513,986 bytes
Protection:     AACS
Extras:         BD-Java
BDInfo:         0.7.5.5

PLAYLIST REPORT:

Name:                   01255.MPLS
Length:                 1:27:50.473 (h:m:s.ms)
Size:                   22,899,468,288 bytes
Total Bitrate:          34.76 Mbps

VIDEO:

Codec                   Bitrate             Description     
-----                   -------             -----------     
MPEG-4 AVC Video        29065 kbps          1080p / 23.976 fps / 16:9 / High Profile 4.1

AUDIO:

Codec                           Language        Bitrate         Description     
-----                           --------        -------         -----------     
DTS-HD Master Audio             English         3947 kbps       7.1 / 48 kHz /  3947 kbps / 24-bit (DTS Core: 5.1 / 48 kHz /  1509 kbps / 24-bit)

FILES:

Name            Time In         Length          Size            Total Bitrate   
----            -------         ------          ----            -------------   
00378.M2TS      0:00:00.000     1:27:50.473     22,899,468,288  34,759          

CHAPTERS:

Number          Time In         Length          Avg Video Rate  Max 1-Sec Rate  Max 1-Sec Time  Max 5-Sec Rate  Max 5-Sec Time  Max 10Sec Rate  Max 10Sec Time  Avg Frame Size  Max Frame Size  Max Frame Time  
------          -------         ------          --------------  --------------  --------------  --------------  --------------  --------------  --------------  --------------  --------------  --------------  
1               0:00:00.000     0:05:31.331     31,782 kbps     44,484 kbps     00:04:19.801    38,981 kbps     00:00:19.227    38,715 kbps     00:00:14.305    165,675 bytes   637,886 bytes   00:03:09.355    
2               0:05:31.331     0:03:40.929     31,550 kbps     41,751 kbps     00:06:39.357    38,596 kbps     00:06:13.915    38,219 kbps     00:06:08.910    164,490 bytes   631,370 bytes   00:06:23.383    
3               0:09:12.260     0:05:01.884     29,645 kbps     46,621 kbps     00:12:54.982    38,356 kbps     00:11:24.183    37,348 kbps     00:11:23.683    154,554 bytes   639,716 bytes   00:11:59.719    
4               0:14:14.144     0:04:44.158     30,211 kbps     45,948 kbps     00:15:58.540    38,742 kbps     00:18:48.877    38,499 kbps     00:18:33.862    157,506 bytes   640,896 bytes   00:18:13.425    
5               0:18:58.303     0:02:18.930     30,035 kbps     40,421 kbps     00:20:27.601    37,285 kbps     00:19:01.223    35,788 kbps     00:19:01.265    156,587 bytes   570,080 bytes   00:19:03.016    
6               0:21:17.234     0:04:10.917     29,336 kbps     42,100 kbps     00:21:37.212    38,037 kbps     00:24:42.814    35,553 kbps     00:21:35.961    152,946 bytes   540,914 bytes   00:24:42.856    
7               0:25:28.151     0:03:56.527     32,064 kbps     41,817 kbps     00:27:21.514    38,774 kbps     00:25:29.778    37,612 kbps     00:28:28.206    167,168 bytes   639,616 bytes   00:25:36.493    
8               0:29:24.679     0:02:36.447     28,348 kbps     40,327 kbps     00:30:50.181    37,152 kbps     00:30:15.522    35,405 kbps     00:30:42.090    147,792 bytes   558,916 bytes   00:30:51.099    
9               0:32:01.127     0:02:51.337     27,855 kbps     40,273 kbps     00:33:21.457    36,849 kbps     00:33:05.566    34,008 kbps     00:33:17.870    145,224 bytes   556,981 bytes   00:34:44.707    
10              0:34:52.465     0:05:29.454     30,731 kbps     45,730 kbps     00:37:26.369    38,659 kbps     00:35:28.084    37,802 kbps     00:35:23.663    160,216 bytes   635,666 bytes   00:35:06.229    
11              0:40:21.919     0:04:23.179     31,333 kbps     46,265 kbps     00:41:46.754    39,518 kbps     00:41:42.750    38,401 kbps     00:42:26.794    163,353 bytes   630,440 bytes   00:43:01.036    
12              0:44:45.099     0:06:30.640     29,914 kbps     41,138 kbps     00:47:31.139    38,197 kbps     00:47:04.571    36,357 kbps     00:47:03.070    155,959 bytes   574,966 bytes   00:51:15.739    
13              0:51:15.739     0:04:31.229     29,126 kbps     41,925 kbps     00:55:33.371    36,994 kbps     00:53:19.279    35,454 kbps     00:53:20.155    151,850 bytes   628,702 bytes   00:51:19.743    
14              0:55:46.968     0:03:46.935     29,493 kbps     41,191 kbps     00:58:09.194    38,331 kbps     00:58:05.815    37,861 kbps     00:58:06.065    153,762 bytes   617,225 bytes   00:59:00.870    
15              0:59:33.903     0:02:30.650     31,861 kbps     42,656 kbps     01:00:50.229    37,471 kbps     01:00:10.523    36,426 kbps     01:00:41.971    166,111 bytes   512,416 bytes   01:01:37.276    
16              1:02:04.554     0:05:00.508     30,155 kbps     40,121 kbps     01:05:05.109    37,715 kbps     01:03:04.030    35,833 kbps     01:03:02.904    157,217 bytes   514,227 bytes   01:04:01.712    
17              1:07:05.062     0:05:31.789     30,477 kbps     41,064 kbps     01:11:16.939    38,488 kbps     01:08:55.464    36,891 kbps     01:11:09.640    158,892 bytes   572,339 bytes   01:12:11.243    
18              1:12:36.852     0:03:54.275     32,335 kbps     42,237 kbps     01:15:02.247    38,660 kbps     01:15:11.924    38,388 kbps     01:15:06.960    168,581 bytes   626,458 bytes   01:14:54.114    
19              1:16:31.128     0:03:13.735     26,637 kbps     42,087 kbps     01:17:42.324    35,593 kbps     01:17:14.880    34,670 kbps     01:17:17.174    138,876 bytes   612,893 bytes   01:17:17.299    
20              1:19:44.863     0:08:05.610     17,436 kbps     32,620 kbps     01:22:23.521    28,730 kbps     01:20:10.972    26,907 kbps     01:20:05.967    90,909 bytes    601,949 bytes   01:22:24.522    

STREAM DIAGNOSTICS:

File            PID             Type            Codec           Language                Seconds                 Bitrate                 Bytes           Packets         
----            ---             ----            -----           --------                --------------          --------------          -------------   -----           
00378.M2TS      4113 (0x1011)   0x1B            AVC                                     5270.307                29,066                  19,148,202,220  104,139,807     
00378.M2TS      4352 (0x1100)   0x86            DTS-HD MA       eng (English)           5270.307                3,947                   2,600,060,052   14,951,657      

[/code]
<---- END FORUMS PASTE ---->

QUICK SUMMARY:

Disc Title: UglyDolls
Disc Label: Uglydolls.2019.COMPLETE.BLURAY-DiSRUPTION
Disc Size: 49,674,513,986 bytes
Protection: AACS
Playlist: 01255.MPLS
Size: 22,899,468,288 bytes
Length: 1:27:50.473
Total Bitrate: 34.76 Mbps
Video: MPEG-4 AVC Video / 29065 kbps / 1080p / 23.976 fps / 16:9 / High Profile 4.1
Audio: English / DTS-HD Master Audio / 7.1 / 48 kHz /  3947 kbps / 24-bit (DTS Core: 5.1 / 48 kHz /  1509 kbps / 24-bit)

